<?xml version="1.0" encoding="UTF-8" standalone="no"?>
<!-- Created with Inkscape (http://www.inkscape.org/) -->

<svg
   xmlns:dc="http://purl.org/dc/elements/1.1/"
   xmlns:cc="http://creativecommons.org/ns#"
   xmlns:rdf="http://www.w3.org/1999/02/22-rdf-syntax-ns#"
   xmlns:svg="http://www.w3.org/2000/svg"
   xmlns="http://www.w3.org/2000/svg"
   xmlns:sodipodi="http://sodipodi.sourceforge.net/DTD/sodipodi-0.dtd"
   xmlns:inkscape="http://www.inkscape.org/namespaces/inkscape"
   id="svg3406"
   version="1.1"
   inkscape:version="0.91 r13725"
   width="340.59665"
   height="605.62109"
   viewBox="0 0 340.59665 605.62109"
   sodipodi:docname="silhouette-football-15.svg">
  <title
     id="title3340">Silhouette Football 15</title>
  <metadata
     id="metadata3412">
    <rdf:RDF>
      <cc:Work
         rdf:about="">
        <dc:format>image/svg+xml</dc:format>
        <dc:type
           rdf:resource="http://purl.org/dc/dcmitype/StillImage" />
        <dc:title>Silhouette Football 15</dc:title>
        <cc:license
           rdf:resource="http://creativecommons.org/publicdomain/zero/1.0/" />
        <dc:date>2017-03-18</dc:date>
        <dc:creator>
          <cc:Agent>
            <dc:title>JLouis</dc:title>
          </cc:Agent>
        </dc:creator>
        <dc:rights>
          <cc:Agent>
            <dc:title>Domaine pubic</dc:title>
          </cc:Agent>
        </dc:rights>
        <dc:publisher>
          <cc:Agent>
            <dc:title>inkscape</dc:title>
          </cc:Agent>
        </dc:publisher>
        <dc:subject>
          <rdf:Bag>
            <rdf:li>silhouette</rdf:li>
            <rdf:li>soccer</rdf:li>
            <rdf:li>player</rdf:li>
            <rdf:li>sport</rdf:li>
            <rdf:li>football</rdf:li>
            <rdf:li>joueurs</rdf:li>
          </rdf:Bag>
        </dc:subject>
        <dc:description>Soccer player in silhouette - Joueur de football en silhouette</dc:description>
      </cc:Work>
      <cc:License
         rdf:about="http://creativecommons.org/publicdomain/zero/1.0/">
        <cc:permits
           rdf:resource="http://creativecommons.org/ns#Reproduction" />
        <cc:permits
           rdf:resource="http://creativecommons.org/ns#Distribution" />
        <cc:permits
           rdf:resource="http://creativecommons.org/ns#DerivativeWorks" />
      </cc:License>
    </rdf:RDF>
  </metadata>
  <defs
     id="defs3410" />
  <sodipodi:namedview
     pagecolor="#ffffff"
     bordercolor="#666666"
     borderopacity="1"
     objecttolerance="10"
     gridtolerance="10"
     guidetolerance="10"
     inkscape:pageopacity="0"
     inkscape:pageshadow="2"
     inkscape:window-width="1238"
     inkscape:window-height="756"
     id="namedview3408"
     showgrid="false"
     fit-margin-top="0"
     fit-margin-left="0"
     fit-margin-right="0"
     fit-margin-bottom="0"
     inkscape:zoom="0.8828125"
     inkscape:cx="-40.899411"
     inkscape:cy="296.82899"
     inkscape:window-x="0"
     inkscape:window-y="0"
     inkscape:window-maximized="1"
     inkscape:current-layer="svg3406" />
  <g
     id="g3416"
     transform="translate(-6.5177776,-24.800827)">
    <path
       style="fill:#d0e9fc"
       d="M 316.32036,627.63148 C 314.88281,624.94539 308.83159,622.5 303.62229,622.5 c -4.8611,0 -9.36799,-2.27392 -10.81907,-5.45867 -1.45283,-3.18864 -11.10917,-8.29133 -15.69052,-8.29133 -1.78116,0 -3.77495,0.95864 -4.43065,2.13029 -1.00679,1.79904 -1.69675,1.9004 -4.43711,0.6518 C 266.46023,610.71893 265,609.21757 265,608.19578 c 0,-1.0218 -1.13335,-2.46437 -2.51855,-3.2057 -1.98183,-1.06064 -2.67627,-0.93683 -3.25874,0.58102 -0.4071,1.06089 -1.69246,1.9289 -2.85635,1.9289 -1.5733,0 -2.501,-1.86316 -3.61626,-7.26275 -1.97375,-9.55592 -1.90381,-12.16251 0.52624,-19.61225 3.44259,-10.5539 4.10731,-11.875 5.97492,-11.875 2.17758,0 3.32846,-3.57944 7.43539,-23.125 4.81474,-22.91416 6.80754,-37.97193 6.14105,-46.40216 -0.48611,-6.14861 0.25685,-10.81518 3.78124,-23.75 5.81496,-21.34152 6.09502,-22.59574 6.63552,-29.7166 l 0.46444,-6.11877 -10.29195,-10.23306 c -5.66057,-5.62819 -12.12773,-11.13232 -14.37145,-12.23141 -5.12325,-2.50964 -13.50664,-9.56134 -29.09106,-24.47001 l -12.20107,-11.67202 -5.43918,5.99634 c -2.99155,3.29799 -12.50118,13.47348 -21.13249,22.61222 -15.54939,16.46348 -15.74713,16.74755 -21.5625,30.9755 -3.22806,7.89781 -5.8692,15.15257 -5.8692,16.1217 0,0.96912 -1.97429,4.69582 -4.3873,8.28155 -2.41301,3.58572 -4.72244,7.85481 -5.13206,9.48687 -0.66578,2.65265 -12.89754,11.74485 -15.80039,11.74485 -3.85713,0 -40.414076,30.25046 -44.81246,37.08181 -0.958535,1.48875 -8.888622,10.0176 -17.622417,18.953 -15.368774,15.72355 -22.078959,25.32117 -21.232335,30.36871 0.187133,1.11569 -0.826837,4.00658 -2.253267,6.4242 -1.426431,2.41762 -2.795208,6.28604 -3.041727,8.59648 -0.24652,2.31044 -1.37061,7.29455 -2.497978,11.0758 -1.127368,3.78125 -2.668931,11.375 -3.425695,16.875 -0.756762,5.5 -1.932706,10.70312 -2.613207,11.5625 -0.8307,1.04905 -5.052655,1.5625 -12.848103,1.5625 -11.422337,0 -11.663187,-0.0622 -14.836191,-3.83313 -4.3511009,-5.17098 -7.4907966,-16.31081 -6.4505899,-22.88707 0.4484514,-2.83514 1.9446844,-8.81105 3.3249619,-13.2798 1.810096,-5.86031 2.284462,-9.77996 1.70188,-14.0625 -0.57826,-4.25077 -0.378991,-5.9375 0.701454,-5.9375 0.979943,0 1.307689,-1.37279 0.934615,-3.91471 -0.370755,-2.52612 0.46232,-6.06405 2.348594,-9.97412 2.324118,-4.81766 4.192356,-6.70254 9.116595,-9.19785 4.101316,-2.0783 6.474491,-2.68371 7.025442,-1.79226 1.500617,2.42805 9.195659,-6.56413 18.288237,-21.37106 4.855038,-7.90625 11.2962,-17.92984 14.313692,-22.27464 3.017494,-4.3448 6.667028,-10.25105 8.110076,-13.125 4.849318,-9.65781 8.426596,-13.0208 24.327574,-22.87028 8.706509,-5.39304 16.714239,-11.15503 17.794959,-12.8044 2.90934,-4.44022 4.13249,-23.64803 1.75373,-27.53968 -2.09042,-3.41994 -1.06544,-8.06301 6.79063,-30.761 2.37953,-6.875 5.19508,-16.15625 6.25679,-20.625 1.0617,-4.46875 2.43304,-9.10174 3.04743,-10.29554 0.61439,-1.1938 1.11706,-3.78981 1.11706,-5.76892 0,-1.97911 1.22491,-5.15561 2.72202,-7.05889 2.60278,-3.30889 2.62302,-3.53289 0.4621,-5.113 -2.15072,-1.57264 -2.0714,-2.12334 1.64144,-11.39557 2.14576,-5.35869 5.36463,-15.08683 7.15304,-21.61808 1.78842,-6.53125 3.56474,-12.71875 3.94739,-13.75 0.38265,-1.03125 0.57586,-3.10991 0.42936,-4.61924 -0.14651,-1.50933 0.3684,-3.93032 1.14424,-5.38 0.77584,-1.44966 2.15302,-5.10257 3.0604,-8.11756 l 1.64978,-5.48182 -6.64648,-3.25182 c -4.36993,-2.13801 -9.1817,-6.12435 -14.04806,-11.6382 -7.30109,-8.2725 -7.41287,-8.5137 -8.23259,-17.76553 -0.86779,-9.7943 1.07541,-19.69632 5.0581,-25.77467 1.02621,-1.56618 2.07867,-4.14105 2.33881,-5.72188 1.07469,-6.53107 8.12711,-24.70649 12.75586,-32.87428 2.72728,-4.8125 7.6378,-13.52087 10.91228,-19.35195 8.30206,-14.78406 14.97251,-22.05336 27.54968,-30.02305 5.96729,-3.78125 12.69854,-8.42373 14.95834,-10.31662 2.2598,-1.8929 6.28235,-4.34787 8.939,-5.45549 9.07965,-3.78554 11.70529,-6.40534 11.70529,-11.67927 0,-2.797909 -0.68185,-5.042799 -1.64379,-5.41193 C 217.6808,93.897842 213.75,82.466811 213.75,77.606456 c 0,-1.846051 0.55131,-3.907767 1.22514,-4.581591 0.80017,-0.80018 0.76891,-2.87742 -0.0901,-5.988634 -0.72339,-2.619923 -0.9998,-5.585586 -0.61422,-6.59036 0.38556,-1.004773 -0.15704,-3.136428 -1.20578,-4.73701 -2.26544,-3.457488 -1.77074,-10.599902 1.01945,-14.718965 2.59308,-3.828079 9.66554,-11.363526 9.66554,-10.298281 0,0.46525 1.26562,0.02278 2.8125,-0.983289 6.86287,-4.463484 26.44017,-6.534199 32.27146,-3.413389 1.43626,0.768664 3.38494,1.100732 4.33039,0.737928 1.65918,-0.636685 5.76123,2.340654 13.10679,9.513127 3.92014,3.827773 5.75236,11.234004 3.96073,16.010092 C 278.2934,57.723619 277.12178,72.5 278.65051,72.5 c 3.90127,0 -0.94899,21.104467 -5.09971,22.189905 -1.37869,0.360535 -2.3008,1.734499 -2.3008,3.428229 0,1.554606 -0.84375,4.845936 -1.875,7.314066 -2.99376,7.16507 -2.44544,10.50674 2.1875,13.3315 2.23437,1.36233 5.25925,2.47906 6.72195,2.48163 1.46269,0.003 3.35969,0.84842 4.21555,1.87967 0.85586,1.03125 3.36541,1.875 5.57677,1.875 4.15324,0 11.58833,4.77136 14.43156,9.26125 0.83109,1.31242 2.69765,6.37492 4.14788,11.25 2.22609,7.4831 2.59573,11.66993 2.37309,26.87925 -0.28516,19.48139 -0.70396,17.6783 8.53385,36.74137 1.26784,2.61628 1.97879,5.60735 1.5799,6.64683 -0.39887,1.03947 -0.13036,3.11763 0.5967,4.61812 0.72706,1.50051 1.62981,4.13443 2.00609,5.85318 1.32991,6.07461 4.08133,16.89939 4.76585,18.75 0.38145,1.03125 1.36047,4.40625 2.17562,7.5 0.81515,3.09375 2.00648,7.35244 2.64739,9.46375 0.64091,2.11131 1.1653,4.5616 1.1653,5.4451 0,0.88349 1.40625,2.7125 3.125,4.06447 2.15916,1.6984 3.1264,3.68568 3.12954,6.4299 0.002,2.18448 1.73402,8.47178 3.84786,13.97178 5.58362,14.52809 5.53547,14.15989 2.30175,17.60202 -2.28964,2.43722 -3.11529,5.16365 -3.83019,12.64794 -0.61546,6.44333 -1.71785,10.63185 -3.39543,12.90092 -1.36626,1.84795 -3.09538,5.55123 -3.84249,8.22951 C 331.98577,349.88822 324.37795,360 321.23785,360 c -2.94181,0 -3.20758,-2.32062 -0.6526,-5.69859 2.68401,-3.5486 2.3223,-4.39449 -1.29163,-3.02047 C 314.75502,353.00651 305,352.8393 305,351.03592 c 0,-0.80523 0.88655,-2.4437 1.97011,-3.64102 1.08356,-1.19733 2.1201,-4.05411 2.3034,-6.34843 0.18331,-2.29431 1.24458,-5.93118 2.35838,-8.08196 1.1138,-2.15076 3.13675,-7.92206 4.49546,-12.8251 1.3587,-4.90304 3.63981,-10.55696 5.06914,-12.56426 1.69904,-2.38608 2.13532,-3.93606 1.26016,-4.47695 -0.73624,-0.45501 -1.1187,-1.47888 -0.8499,-2.27525 0.26879,-0.79638 -1.35219,-4.1294 -3.60218,-7.40673 -2.24997,-3.27732 -5.26877,-9.107 -6.70843,-12.95483 -1.43965,-3.84783 -5.31988,-11.57263 -8.6227,-17.16623 C 299.37061,257.70157 295.1886,249.46875 293.38007,245 288.44949,232.81684 281.62954,217.46286 280.7642,216.59754 280.34389,216.17722 280,214.80209 280,213.54166 c 0,-3.80419 -2.2394,-2.57376 -3.18961,1.7525 -0.48854,2.2243 -1.60889,5.17743 -2.48969,6.5625 -0.88079,1.38509 -2.249,8.67674 -3.04046,16.20368 -0.79148,7.52693 -1.77592,14.23041 -2.18767,14.89662 -1.32653,2.1464 -2.50338,18.85219 -1.47232,20.9002 0.54885,1.09019 0.49156,5.56446 -0.12731,9.94283 -0.7967,5.63633 -0.70823,8.46315 0.303,9.6816 1.5245,1.8369 3.54711,12.39315 3.46436,18.08091 -0.0275,1.89062 0.4778,3.4375 1.1229,3.4375 0.64511,0 1.86434,2.10937 2.70939,4.6875 2.30822,7.04197 4.62085,9.94269 8.55411,10.72934 2.39384,0.47877 3.79737,1.69015 4.30594,3.71643 0.41497,1.65338 2.94117,4.45322 5.61378,6.22188 9.64214,6.38086 19.6472,29.11184 23.68617,53.81371 2.17031,13.27339 3.30893,17.11234 6.59385,22.23144 4.73808,7.38365 5.90177,15.02434 3.43638,22.56282 -0.97345,2.97653 -1.61437,7.94313 -1.42428,11.03688 0.1901,3.09375 -0.76819,11.8125 -2.12953,19.375 -1.36134,7.5625 -3.06344,16.99824 -3.78245,20.9683 -1.14909,6.34474 -4.40541,15.80977 -14.00462,40.70665 -1.41547,3.67124 -3.32692,6.96404 -4.24764,7.31736 -2.49391,0.957 -6.71083,15.93009 -7.55508,26.82593 -0.70841,9.14281 -0.5946,9.71502 2.5597,12.86932 1.81559,1.81559 3.30108,3.83639 3.30108,4.49065 0,2.6136 9.69517,11.67209 19.66999,18.37824 11.79858,7.93229 16.58001,12.87416 16.58001,17.1364 0,3.82734 -2.20956,5.45934 -8.17891,6.04099 -3.57454,0.3483 -5.28825,1.23193 -6.18,3.18655 -1.52189,3.33583 -3.88889,3.47863 -5.57073,0.33608 z m 6.49214,-291.14034 c 2.12797,-1.82749 3.1271,-9.00388 1.25,-8.97843 -0.51563,0.007 -2.0274,2.39761 -3.35949,5.3125 -1.3321,2.91489 -2.6707,5.79996 -2.97466,6.41129 -0.66051,1.32836 2.03623,-0.12784 5.08415,-2.74536 z"
       id="path3430"
       inkscape:connector-curvature="0" />
    <path
       style="fill:#acdafa"
       d="m 316.6174,627.51994 c -0.65182,-2.4926 -6.89916,-4.9988 -12.49609,-5.01297 -4.09734,-0.01 -8.83895,-2.51485 -10.99706,-5.80855 -3.65883,-5.58407 -16.72704,-10.51312 -19.38427,-7.31133 -2.46539,2.9706 -7.37566,2.32636 -8.69382,-1.14067 -1.61463,-4.24682 -3.87915,-5.28353 -5.80074,-2.65561 -0.89392,1.22251 -2.38562,1.93099 -3.31488,1.5744 -1.73065,-0.66411 -4.68054,-11.17345 -4.68054,-16.67501 0,-5.18352 5.01874,-18.46111 8.06589,-21.33915 5.2666,-4.97431 15.27894,-55.89876 13.67443,-69.55053 -0.63888,-5.43588 0.0433,-9.76171 3.60174,-22.84072 5.89542,-21.66826 7.33501,-27.96201 6.64956,-29.0711 -0.31716,-0.51319 -0.0924,-1.7167 0.49958,-2.67446 0.6532,-1.05689 0.42135,-2.99884 -0.58981,-4.94033 -2.27628,-4.37057 -16.66388,-18.5557 -22.11366,-21.80245 -7.62074,-4.54011 -19.92021,-14.70466 -31.58554,-26.10296 -6.16724,-6.02608 -11.6097,-10.80733 -12.09436,-10.625 -0.79148,0.29775 -18.18105,18.93297 -35.86898,38.43834 -5.03154,5.54852 -7.92737,10.44281 -11.97619,20.24107 -2.93702,7.10768 -5.75191,14.60584 -6.25532,16.66258 -0.5034,2.05672 -2.34401,5.82221 -4.09024,8.36775 -1.74622,2.54552 -4.10131,6.48302 -5.23352,8.75 -1.30028,2.60346 -4.59107,5.57796 -8.93358,8.07492 -19.98032,11.48879 -37.67641,25.54318 -49.965072,39.6827 -1.73796,1.99973 -10.245462,10.99973 -18.905558,20 -16.140277,16.77429 -22.692207,26.14784 -21.490061,30.74486 0.370571,1.41707 -0.160774,3.54237 -1.180766,4.72288 -2.297557,2.65915 -4.90758,10.18807 -4.026227,11.61414 0.358808,0.58056 0.109188,2.06282 -0.554702,3.29391 -1.870538,3.46864 -4.019886,12.51535 -5.580439,23.48835 -0.782196,5.5 -1.877247,10.70312 -2.433446,11.5625 -0.690753,1.06727 -4.731473,1.5625 -12.748886,1.5625 l -11.737614,0 -3.163311,-4.14731 c -1.739821,-2.28103 -4.1091512,-7.7654 -5.2651779,-12.1875 -2.0960446,-8.01792 -2.0922316,-8.07408 1.3766175,-20.27672 2.4708874,-8.69202 3.2526524,-13.64879 2.6988554,-17.11204 -0.471539,-2.94885 -0.251612,-5.20187 0.556531,-5.70133 0.734889,-0.45419 1.177364,-2.59751 0.98328,-4.76295 -0.593569,-6.62253 4.377975,-14.92143 10.81121,-18.04694 3.064545,-1.48887 6.32128,-2.41947 7.237186,-2.06801 2.650425,1.01708 9.70243,-6.79521 17.055778,-18.89455 3.736258,-6.1477 10.908133,-17.30687 15.9375,-24.79815 5.029366,-7.49126 9.144302,-14.15139 9.144302,-14.80028 0,-0.64888 1.546875,-3.38306 3.4375,-6.07595 2.992736,-4.26267 11.908597,-10.63201 32.48259,-23.20498 5.20839,-3.1829 7.16567,-7.88132 7.96344,-19.11612 0.56971,-8.02297 0.31182,-11.56985 -1.03598,-14.24803 -1.37397,-2.73022 -1.47849,-4.34137 -0.44599,-6.875 0.74168,-1.82003 2.50575,-7.7621 3.92016,-13.20462 1.4144,-5.4425 3.997,-13.28197 5.73911,-17.42103 2.8783,-6.83852 4.0445,-11.0892 8.22577,-29.98223 0.73626,-3.3268 2.09798,-6.3401 3.02604,-6.69622 2.29699,-0.88145 2.12846,-3.75897 -0.29975,-5.11785 -1.74957,-0.97912 -1.46894,-2.36875 2.34744,-11.62462 2.38398,-5.78191 4.93881,-13.04382 5.67738,-16.13757 0.73857,-3.09375 2.27183,-8.71875 3.40724,-12.5 1.13541,-3.78125 1.9994,-8.39181 1.91996,-10.24569 -0.0795,-1.85387 0.92725,-5.51012 2.23709,-8.125 4.97145,-9.92464 4.73406,-11.03346 -3.28472,-15.34261 -4.25519,-2.28666 -9.98183,-6.99401 -14.02324,-11.52721 -6.39577,-7.17407 -6.8868,-8.18694 -7.70744,-15.89835 -1.00545,-9.44805 0.54246,-18.79724 4.14945,-25.06225 1.36989,-2.37937 2.64904,-5.47312 2.84254,-6.875 0.19351,-1.40189 1.26749,-4.6402 2.38662,-7.19624 1.11914,-2.55605 2.03479,-5.66566 2.03479,-6.91026 0,-6.1675 23.91077,-48.36614 32.2719,-56.95468 3.21921,-3.30676 10.63435,-9.1995 16.4781,-13.09496 5.84375,-3.89546 12.59375,-8.58603 15,-10.42349 2.40625,-1.83746 5.71008,-3.73906 7.34184,-4.22577 1.63176,-0.48671 4.86613,-2.00554 7.1875,-3.37518 3.66802,-2.16419 4.22066,-3.14045 4.22066,-7.45606 0,-2.731204 -0.82973,-5.795546 -1.84384,-6.809655 -2.06756,-2.067563 -5.65616,-13.174208 -5.65616,-17.5057 0,-1.553394 0.52108,-3.146394 1.15794,-3.54 1.6482,-1.018638 0.14623,-14.501466 -1.99721,-17.928705 -2.60924,-4.171999 -0.14422,-16.50319 3.29902,-16.50319 0.61697,0 1.46161,-1.07072 1.87696,-2.379379 0.41535,-1.308657 2.67936,-3.29246 5.03114,-4.40845 2.35177,-1.115989 4.59911,-2.551952 4.99409,-3.191029 0.39496,-0.639076 1.60062,-0.823308 2.67925,-0.409403 1.07861,0.413905 2.446,-0.03254 3.03864,-0.992093 0.8058,-1.304714 4.0048,-1.715779 12.68633,-1.630166 13.60207,0.134135 19.41558,1.257695 22.85884,4.417857 1.375,1.261948 4.08986,3.72453 6.03303,5.472405 4.66483,4.196009 6.20195,9.749949 4.66901,16.870258 -2.889,13.419107 -3.46126,20 -1.73916,20 3.85107,0 0.0303,18.338696 -4.49555,21.577502 -1.18935,0.851124 -2.85547,4.078748 -3.70248,7.172498 -4.03209,14.72741 -4.00014,14.2141 -1.0311,16.56983 1.52144,1.20715 5.16644,2.82321 8.1,3.59124 2.93356,0.76803 5.63862,1.88973 6.01128,2.49267 0.37263,0.60295 2.5935,1.09626 4.93525,1.09626 2.98972,0 5.58783,1.16785 8.72399,3.92142 5.51967,4.84634 6.46597,6.59273 9.63381,17.77924 2.5523,9.01286 3.10756,17.42668 2.28007,34.54934 -0.39124,8.09573 -0.0208,10.22785 2.71501,15.625 1.74244,3.4375 3.59101,7.65625 4.10794,9.375 0.51693,1.71875 1.56653,3.90539 2.33244,4.8592 0.76591,0.9538 1.47825,3.48505 1.58296,5.625 0.24457,4.99767 2.71907,15.75662 4.26901,18.56134 0.65973,1.1938 1.19949,3.55122 1.19949,5.23872 0,1.68751 0.5625,3.41584 1.25,3.84074 0.6875,0.4249 1.25,2.39365 1.25,4.375 0,1.98135 0.50035,3.91169 1.11189,4.28964 0.61154,0.37796 1.41516,2.52052 1.78582,4.76127 1.36599,8.25778 2.5033,11.23646 5.39403,14.12719 1.67815,1.67815 2.96893,4.47034 2.98292,6.45259 0.0203,2.86838 4.31861,16.52365 8.03759,25.53422 0.53598,1.29857 -0.28555,3.2565 -2.26054,5.38754 -2.50527,2.70324 -3.27287,5.19795 -3.9877,12.96009 -0.52975,5.75237 -1.74788,10.86737 -3.03342,12.73746 -1.18151,1.71875 -2.80243,5.05335 -3.60202,7.41024 -2.1888,6.45166 -8.79232,16.12805 -11.61853,17.02505 -4.36634,1.38582 -4.39642,-0.39046 -0.13975,-8.25398 0.20652,-0.38152 -3.01445,-0.13303 -7.15772,0.55219 -5.75895,0.95243 -7.89878,0.87519 -9.0854,-0.32797 -1.23757,-1.25485 -1.15645,-1.87347 0.40029,-3.05218 2.52635,-1.91287 4.11288,-5.76841 3.78203,-9.19096 -0.14423,-1.49193 0.87001,-4.93196 2.25385,-7.6445 1.38383,-2.71255 3.17553,-7.67938 3.98155,-11.0374 0.80601,-3.35801 2.72013,-8.35549 4.25361,-11.10549 3.22556,-5.78447 2.7165,-9.33445 -2.27741,-15.88181 -1.75624,-2.30255 -4.47305,-7.5461 -6.03735,-11.65233 -1.5643,-4.10622 -5.81563,-12.5059 -9.44739,-18.66595 -3.63178,-6.16005 -7.6782,-14.03505 -8.99208,-17.5 -2.05281,-5.41373 -4.03556,-10.12172 -10.0232,-23.79991 -1.75986,-4.02021 -2.97206,-7.41404 -3.08811,-8.64584 -0.0594,-0.6302 -0.74926,-1.3596 -1.53307,-1.62086 -2.60334,-0.86779 -7.348,15.10901 -9.17398,30.8917 -0.59656,5.15625 -1.66364,14.1306 -2.3713,19.94299 -0.77096,6.3324 -0.83289,11.11475 -0.15449,11.93217 0.67345,0.81145 0.67913,4.56936 0.014,9.27487 -0.84721,5.99377 -0.71667,8.55457 0.53872,10.56783 0.91127,1.46143 2.00713,6.33724 2.43523,10.83513 1.09228,11.47599 7.34962,23.86905 12.87343,25.49662 2.43686,0.71802 4.24502,2.20465 4.65156,3.82442 0.36578,1.45738 2.90815,4.4524 5.64971,6.65557 7.31399,5.87768 21.33635,32.73663 21.32434,40.8454 -0.0126,8.50905 4.40043,25.9036 8.87958,35 5.16562,10.4905 5.8314,14.4193 3.42833,20.23112 -0.80022,1.93539 -1.83472,9.14388 -2.29888,16.01888 -1.1491,17.02041 -5.67765,41.5814 -9.52759,51.67372 -1.74694,4.57945 -4.86921,13.10753 -6.93841,18.95128 -2.06919,5.84375 -5.06172,12.03125 -6.65005,13.75 -2.6325,2.84864 -4.12175,7.32326 -7.92288,23.80521 -1.58491,6.8723 -0.20479,14.08068 3.4384,17.95868 1.43241,1.52472 2.60439,3.41752 2.60439,4.2062 0,2.00386 9.90666,11.98667 14.40064,14.51131 7.71943,4.33669 18.44127,12.76612 20.34792,15.99744 1.60111,2.71348 1.69983,3.96648 0.517,6.5625 -1.24427,2.73087 -2.27367,3.20866 -6.91312,3.20866 -4.60154,0 -5.67308,0.48706 -6.875,3.125 -1.71054,3.75423 -3.96858,4.05388 -4.86004,0.64494 z m 3.54022,-288.24943 c 2.09185,-0.75239 4.09127,-4.02492 5.47305,-8.95801 0.56492,-2.0168 0.25733,-2.8125 -1.08719,-2.8125 -1.03125,0 -2.25945,1.26562 -2.72933,2.8125 -0.46987,1.54687 -2.28161,4.71627 -4.02607,7.04311 -1.74447,2.32684 -2.38231,3.87408 -1.41742,3.4383 0.96489,-0.43576 2.66902,-1.1213 3.78696,-1.5234 z"
       id="path3428"
       inkscape:connector-curvature="0" />
    <path
       style="fill:#8fcefa"
       d="m 316.53541,627.00224 c -1.14179,-2.50595 -2.84775,-3.24771 -10.39839,-4.5213 -7.56972,-1.27679 -9.65842,-2.18789 -12.89727,-5.6258 -6.68518,-7.09606 -18.26863,-11.31519 -20.43541,-7.44335 -1.69045,3.02066 -7.07813,1.92464 -7.57104,-1.54019 -0.50183,-3.52761 -5.16481,-5.1832 -6.72855,-2.38896 -1.99113,3.55793 -3.17691,2.20289 -5.46308,-6.24289 -1.89268,-6.99215 -2.00115,-9.05506 -0.70647,-13.4375 0.84121,-2.84749 2.0268,-7.09347 2.63465,-9.43554 0.60785,-2.34206 2.53553,-5.43581 4.28372,-6.875 2.51362,-2.06932 3.82193,-5.37711 6.25414,-15.81235 4.867,-20.88143 8.1362,-43.39317 7.97694,-54.92936 -0.114,-8.25956 0.62117,-13.22135 3.30232,-22.28719 1.89694,-6.41421 4.50043,-16.7942 5.78553,-23.06665 l 2.33652,-11.40446 -3.2523,-4.26397 c -4.66381,-6.11459 -17.03237,-17.80825 -21.9996,-20.79919 -8.13335,-4.89738 -19.09885,-13.88074 -30.20001,-24.74104 -6.14905,-6.01562 -11.5413,-10.9375 -11.98277,-10.9375 -0.44149,0 -4.69445,4.33485 -9.45103,9.63301 -4.75657,5.29815 -14.27331,15.6546 -21.14831,23.01432 -13.0231,13.94128 -14.0565,15.71741 -21.90134,37.64254 -1.90196,5.31569 -5.20535,12.30275 -7.34089,15.52682 -2.13552,3.22406 -3.88277,6.58061 -3.88277,7.459 0,2.08777 -6.40243,6.83557 -15,11.12342 -3.78125,1.88581 -7.15625,3.77686 -7.5,4.20233 -0.34375,0.42546 -3.71875,2.8783 -7.5,5.45075 -6.85364,4.66265 -20.12701,17.56525 -48.554126,47.19781 -15.086211,15.72594 -21.759538,25.40555 -20.592321,29.86899 0.353482,1.35171 -0.521535,3.97516 -1.987958,5.96023 -1.440644,1.95018 -3.429095,7.78132 -4.41878,12.95808 -0.989684,5.17676 -2.368649,10.90946 -3.064365,12.73932 -0.695716,1.82988 -1.652285,7.60157 -2.125707,12.82597 -1.041106,11.48899 -1.57062,11.89741 -15.424567,11.89741 -8.557961,0 -10.476854,-0.39468 -12.692834,-2.61066 -7.4713021,-7.4713 -9.4703425,-22.3249 -4.795343,-35.63115 1.868453,-5.3181 2.418642,-9.21402 1.967058,-13.92881 -0.35513,-3.70776 -0.08811,-6.87864 0.615897,-7.31374 0.683561,-0.42247 1.089512,-2.54776 0.902115,-4.72289 -0.727627,-8.44555 11.403477,-22.09551 17.857736,-20.09359 3.46186,1.07378 9.058984,-5.43963 20.472655,-23.82416 5.975491,-9.625 12.702321,-20.03125 14.948511,-23.125 2.24619,-3.09375 5.509315,-8.4375 7.25139,-11.875 4.060724,-8.01271 8.737213,-12.26239 23.390639,-21.25585 19.24942,-11.81422 19.95922,-12.7948 20.67955,-28.56857 0.31687,-6.93867 -0.0636,-10.61033 -1.29523,-12.5 -1.54498,-2.3704 -1.26087,-4.31519 2.49082,-17.05058 2.32909,-7.90625 5.67625,-18.1947 7.43814,-22.86322 1.76188,-4.66852 4.35488,-13.65763 5.76223,-19.97579 1.40735,-6.31816 3.488,-12.5143 4.62367,-13.7692 1.67987,-1.85624 1.78387,-2.73155 0.55783,-4.69475 -2.16343,-3.46423 -1.93007,-5.02108 2.09857,-14.00014 1.98306,-4.41987 3.99811,-9.95669 4.47787,-12.30401 1.37454,-6.72511 4.57474,-17.79866 5.86184,-20.28358 0.64545,-1.24612 0.85671,-3.26397 0.46945,-4.48411 -0.38725,-1.22012 0.37272,-4.70057 1.68884,-7.73431 1.31611,-3.03374 2.741,-7.20339 3.1664,-9.26589 0.72207,-3.50076 0.4083,-3.89944 -4.721,-5.99835 -3.45464,-1.41364 -8.84189,-5.70054 -14.51095,-11.54707 l -9.01648,-9.29873 0.42673,-12.82792 c 0.35913,-10.79628 0.95377,-13.91678 3.7545,-19.70293 1.83028,-3.78125 4.85298,-11.9375 6.71713,-18.125 3.4168,-11.34115 4.3521,-13.27487 19.04469,-39.375 8.3736,-14.87497 17.63528,-25.9003 25.2854,-30.10035 2.40625,-1.32107 8.59375,-5.51701 13.75,-9.32431 5.15625,-3.8073 10.34124,-7.24265 11.5222,-7.6341 1.18096,-0.39146 4.55456,-1.99936 7.49688,-3.57312 4.56037,-2.4392 5.50298,-3.63661 6.38875,-8.1156 0.90132,-4.557657 0.69917,-5.492306 -1.52482,-7.050042 C 216.02939,91.328187 211.67109,73.75 215.06207,73.75 c 1.71695,0 0.18387,-14.477525 -1.98837,-18.77686 -2.11011,-4.176366 -0.5707,-12.476135 2.9709,-16.017736 C 217.53256,37.467431 218.75,35.6875 218.75,35 c 0,-0.6875 0.84375,-1.25 1.875,-1.25 1.03125,0 1.87939,-0.421875 1.88475,-0.9375 0.0126,-1.212181 6.14436,-4.0625 8.73945,-4.0625 1.10044,0 2.70382,-0.703125 3.56307,-1.5625 1.87002,-1.87029 21.03669,-1.905621 27.71733,-0.05109 2.42252,0.672488 6.64127,3.276718 9.375,5.787178 2.73372,2.510459 5.3255,4.567159 5.75951,4.570442 1.15576,0.0088 3.77885,11.182486 2.94273,12.535363 -0.53209,0.860934 -4.34475,20.259049 -4.35513,22.15811 -9.4e-4,0.171875 0.84204,0.3125 1.87329,0.3125 3.87037,0 0.31584,18.198951 -4.21906,21.601282 -1.99484,1.496637 -5.3897,10.219595 -6.98297,17.942405 -0.72023,3.49114 -0.34216,4.20687 3.46517,6.55993 2.35049,1.45268 6.04892,2.9963 8.21875,3.43026 2.16982,0.43397 4.24787,1.27888 4.6179,1.87758 0.37001,0.5987 2.24387,1.08855 4.16412,1.08855 3.9954,0 10.68439,4.16542 14.05105,8.75 1.26216,1.71875 3.45649,7.58167 4.87628,13.02872 2.12585,8.15581 2.51558,12.9049 2.20825,26.90843 -0.36288,16.53429 -0.27373,17.21125 3.22241,24.47127 1.97759,4.10661 4.3623,9.05904 5.29935,11.00538 0.93706,1.94633 1.70375,5.36821 1.70375,7.60416 0,2.23595 0.4131,4.47847 0.918,4.98337 0.7826,0.7826 3.38401,10.66445 4.49515,17.07545 0.18605,1.07348 0.96724,3.60473 1.73596,5.625 1.64115,4.31308 3.32918,10.83105 3.10124,11.97483 -0.42544,2.13477 4.71344,14.07873 6.48356,15.06935 1.10885,0.62055 2.02403,2.64718 2.03373,4.50365 0.01,1.85646 1.97051,8.71914 4.35736,15.25039 4.88786,13.37489 5.22979,15.97435 2.37575,18.06127 -2.13917,1.56421 -4.10739,9.62956 -4.19631,17.19571 -0.033,2.8066 -1.28595,6.44673 -3.17944,9.23694 -1.71875,2.53271 -3.125,5.41066 -3.125,6.39542 0,2.58444 -5.67576,11.88541 -9.37171,15.35757 -4.23538,3.97892 -6.87566,1.81886 -3.70034,-3.0273 1.18839,-1.8137 1.94387,-3.50373 1.67888,-3.75561 -0.265,-0.25189 -3.8067,0.0689 -7.87045,0.71288 -8.05555,1.27657 -11.96104,-0.19467 -8.15892,-3.07353 2.34119,-1.77268 4.14382,-5.74117 3.82689,-8.42494 -0.12642,-1.07061 1.12199,-5.00811 2.77425,-8.75 1.65226,-3.74188 3.40493,-9.18654 3.89481,-12.09924 0.48989,-2.9127 2.18419,-7.20188 3.76513,-9.53151 3.55706,-5.24163 3.0219,-8.89634 -2.50541,-17.10989 -2.24229,-3.33201 -5.08012,-8.75924 -6.30628,-12.06049 -1.22618,-3.30126 -5.00325,-10.66706 -8.39351,-16.36846 -3.39025,-5.7014 -8.0069,-14.98265 -10.25921,-20.625 -2.2523,-5.64235 -5.47195,-13.35258 -7.15478,-17.13383 -4.2287,-9.50175 -5.1117,-11.69745 -5.23639,-13.02083 -0.27583,-2.9276 -3.04788,-1.65573 -4.43795,2.03622 -0.85102,2.26029 -2.05516,5.23461 -2.67587,6.60961 C 271.88637,225.71341 270,237.1617 270,243.83924 c 0,3.29891 -0.59239,7.55611 -1.31641,9.46045 -2.01925,5.31101 -2.26309,38.88747 -0.30274,41.68626 0.8781,1.25366 1.74226,6.49487 1.92035,11.64713 0.17809,5.15225 0.73971,9.11303 1.24806,8.80173 0.50834,-0.31128 2.31406,2.57663 4.01272,6.41759 2.42634,5.48639 4.01758,7.37177 7.42227,8.79435 2.38359,0.99592 4.66676,2.85985 5.07371,4.14205 0.40696,1.2822 2.93463,4.09499 5.61705,6.25064 4.93839,3.9686 13.34473,17.68086 17.08079,27.86186 1.10476,3.01054 3.56014,13.42775 5.4564,23.14936 2.526,12.95012 4.4604,19.46672 7.23551,24.375 4.84915,8.57658 5.84301,13.47949 3.93863,19.43002 -0.8395,2.62312 -1.92395,10.39432 -2.4099,17.26932 -1.38724,19.6262 -5.68667,41.1946 -11.08823,55.625 -2.70211,7.21875 -5.89761,15.8331 -7.10114,19.143 -1.20351,3.3099 -3.70297,7.92409 -5.55437,10.25376 -2.12509,2.67409 -3.91881,7.13783 -4.86511,12.107 -0.82443,4.32919 -1.97864,9.69738 -2.56492,11.92933 -1.47843,5.62836 -0.1954,13.55027 2.60508,16.08467 1.28824,1.16584 2.34225,2.78088 2.34225,3.58897 0,2.84306 11.99382,13.98853 22.73392,21.1259 12.53139,8.32778 15.65617,12.11367 13.96198,16.9159 -1.14479,3.24491 -1.60916,3.44318 -8.68275,3.70728 -2.82836,0.10563 -4.24291,0.98049 -5.28571,3.26919 -1.78672,3.92142 -3.19674,3.95774 -4.94203,0.12724 z m 2.72054,-287.17544 c 2.88702,-1.31541 6.99405,-7.74733 6.99405,-10.95321 0,-3.28245 -3.56387,-0.94434 -5.66593,3.71717 -1.26258,2.79991 -3.44192,5.89366 -4.84297,6.875 -3.04783,2.13478 -0.86923,2.35856 3.51485,0.36104 z"
       id="path3426"
       inkscape:connector-curvature="0" />
    <path
       style="fill:#74c3fc"
       d="m 316.98057,627.21156 c -2.00982,-3.06737 -5.46591,-4.39896 -14.35069,-5.5291 -5.44784,-0.69296 -8.52848,-2.36712 -9.41888,-5.11864 -0.90627,-2.80058 -8.88184,-7.35738 -14.83058,-8.47337 -3.61762,-0.67867 -4.76941,-0.43274 -5.37596,1.14791 -1.26069,3.28529 -6.57781,2.5257 -7.47991,-1.06857 -0.96226,-3.83394 -5.42252,-5.54131 -7.0198,-2.68715 -1.99112,3.55793 -3.17691,2.20289 -5.46307,-6.24289 -1.89269,-6.99215 -2.00116,-9.05506 -0.70648,-13.4375 0.84121,-2.84749 2.0268,-7.09347 2.63465,-9.43554 0.60785,-2.34206 2.55499,-5.43581 4.32697,-6.875 2.67334,-2.17126 3.85147,-5.38296 6.92074,-18.86671 5.03064,-22.10026 7.47075,-39.29669 7.27219,-51.25 -0.13155,-7.91875 0.6909,-12.98716 3.95166,-24.35276 2.26479,-7.89403 4.84916,-18.56446 5.74308,-23.7121 l 1.62527,-9.35934 -4.3745,-5.95927 C 275.89913,429.81207 260.51876,416.25 258.04695,416.25 c -0.77521,0 -2.48104,-1.20002 -3.79071,-2.66672 -1.30969,-1.46671 -5.47499,-4.899 -9.25624,-7.62733 -3.78125,-2.72832 -11.43048,-9.69145 -16.99826,-15.47361 l -10.12328,-10.51301 -10.46031,11.57783 c -5.75318,6.36781 -15.34094,16.64034 -21.30614,22.82784 -9.8492,10.21625 -11.36124,12.46399 -16.45495,24.46144 -3.08501,7.26629 -5.98467,14.92133 -6.44369,17.01121 -0.45901,2.08987 -2.77605,6.81326 -5.14897,10.49641 -2.37293,3.68315 -4.3144,7.3917 -4.3144,8.24124 0,1.6794 -7.66983,7.20547 -15.625,11.25772 -14.01906,7.14113 -24.48976,16.56984 -62.918252,56.65698 -14.962922,15.60875 -22.300098,25.99929 -20.912519,29.61526 0.404509,1.05413 -0.363669,3.69504 -1.707059,5.8687 -2.11467,3.4216 -4.483996,12.1089 -8.902335,32.64104 -0.591776,2.75 -1.100455,7.0692 -1.130396,9.59821 -0.08527,7.20209 -2.340853,8.52679 -14.518725,8.52679 -8.773113,0 -10.942837,-0.40712 -12.969238,-2.43353 -7.3271317,-7.32712 -9.4202769,-20.94213 -5.3232365,-34.62536 3.0747555,-10.26902 3.5364295,-13.87983 2.2616365,-17.6886 -0.589881,-1.76241 -0.382974,-3.56947 0.535405,-4.67605 0.823255,-0.99196 1.250414,-3.48249 0.949243,-5.5345 -0.301173,-2.05202 -0.185615,-3.8853 0.256794,-4.07395 0.442407,-0.18866 1.889847,-2.58806 3.21653,-5.332 2.73763,-5.66217 10.7779,-10.93695 15.040346,-9.86714 3.280676,0.82339 9.330885,-5.8936 16.909255,-18.77281 2.870945,-4.87909 9.012291,-14.5388 13.647435,-21.46602 4.635144,-6.92724 9.840414,-15.36474 11.567266,-18.75 4.013222,-7.8674 7.420281,-10.94283 22.74785,-20.53364 19.92776,-12.46926 20.55418,-13.32798 21.36332,-29.28518 0.36647,-7.22738 0.0141,-10.65946 -1.30043,-12.66567 -1.9855,-3.03025 -1.74314,-4.06976 6.83023,-29.29555 2.21974,-6.53125 5.79562,-18.68754 7.94639,-27.01398 2.15076,-8.32643 4.6984,-16.07998 5.66141,-17.23011 1.47203,-1.75806 1.48503,-2.58795 0.0816,-5.21024 -1.4885,-2.7813 -1.24424,-4.16432 2.25535,-12.7699 2.15855,-5.30792 4.48866,-12.18202 5.17802,-15.27577 0.68937,-3.09375 2.40736,-8.96249 3.81775,-13.04164 1.4104,-4.07915 2.25018,-8.40654 1.86618,-9.61641 -0.384,-1.20988 0.40761,-4.3673 1.75914,-7.0165 1.35151,-2.6492 2.82428,-6.77293 3.27282,-9.16383 0.77978,-4.15656 0.60629,-4.4226 -3.95814,-6.06973 -5.6157,-2.02652 -20.76219,-16.184 -22.94027,-21.44237 -2.58098,-6.231 -1.04459,-24.29197 2.75611,-32.39952 3.60681,-7.69394 5.39384,-12.65348 7.92936,-22.00623 0.95147,-3.50968 4.497,-11.38468 7.87897,-17.5 3.38195,-6.11532 8.61347,-15.57062 11.62558,-21.01177 3.01213,-5.44114 7.89053,-12.58096 10.84089,-15.86626 5.71139,-6.35979 28.58495,-22.53929 42.38671,-29.98206 4.58075,-2.47022 8.7493,-5.56397 9.26345,-6.875 1.65353,-4.21629 1.17164,-8.179305 -1.25343,-10.308314 C 215.93699,90.263971 211.78899,73.75 215.06207,73.75 c 1.73072,0 0.17588,-14.493844 -2.02108,-18.840108 -2.09907,-4.152585 -0.18664,-13.422181 3.26843,-15.842203 1.34232,-0.940196 2.44933,-2.380678 2.46002,-3.201069 0.0319,-2.446286 16.63455,-9.395166 24.98056,-10.455358 1.71875,-0.218332 7.34375,0.219155 12.5,0.972193 8.30924,1.213514 10.09329,1.981546 15.69345,6.756006 7.70647,6.570225 10.08942,12.567163 7.47759,18.818173 -0.93955,2.248655 -1.43622,4.360528 -1.10369,4.693052 0.33252,0.332525 9e-4,3.870265 -0.73695,7.861646 -1.13184,6.12266 -1.04758,7.421565 0.53904,8.309474 1.03431,0.57883 1.88056,2.330515 1.88056,3.892633 0,4.350383 -3.77285,14.932791 -6.07353,17.035561 -2.04852,1.872299 -5.45427,10.79046 -7.02693,18.40042 -0.74409,3.60057 -0.39882,4.2888 3.27131,6.52074 2.25676,1.37241 5.81341,2.8603 7.90367,3.30641 2.09027,0.44611 4.36298,1.23531 5.05048,1.75378 0.6875,0.51847 3.27734,1.30736 5.7552,1.7531 2.47786,0.44574 6.59204,2.62846 9.14262,4.85049 3.84409,3.34892 5.15984,5.85768 7.69122,14.66506 2.6957,9.37912 3.02119,12.75031 2.77572,28.75 -0.25301,16.49289 -0.041,18.51896 2.35383,22.5 1.44753,2.40625 3.3241,6.625 4.17015,9.375 0.84605,2.75 2.03281,5.53437 2.63726,6.1875 0.60445,0.65312 1.099,2.93125 1.099,5.0625 0,2.13125 0.47597,4.40937 1.05772,5.0625 0.58175,0.65313 1.79732,5.40625 2.70126,10.5625 0.90392,5.15625 2.20926,10.10816 2.90072,11.00425 0.69146,0.89609 1.96649,5.11484 2.83338,9.375 2.03536,10.00229 4.73044,17.21151 7.07533,18.92614 1.02493,0.74945 2.14457,3.60295 2.4881,6.34112 0.34354,2.73817 2.38182,9.47849 4.52952,14.97849 4.59701,11.7724 4.68583,12.76726 1.44758,16.21422 -1.7972,1.91304 -2.67891,5.15687 -3.24963,11.95557 -0.48135,5.73394 -1.62274,10.53472 -2.96123,12.45521 -1.1979,1.71875 -2.91063,5.375 -3.80608,8.125 -1.73038,5.31424 -7.21385,14.03016 -10.58916,16.83143 -3.33854,2.77073 -5.11647,-0.2429 -2.49956,-4.23682 1.18839,-1.8137 1.94387,-3.50058 1.67887,-3.74863 -0.265,-0.24807 -3.01307,-0.0819 -6.10682,0.36937 -7.5873,1.10659 -11.29041,0.46944 -10.42215,-1.79324 0.37929,-0.98841 1.45554,-1.79711 2.39165,-1.79711 0.94467,0 1.40346,-0.77807 1.03105,-1.74856 -0.36904,-0.96171 -0.123,-2.08726 0.54689,-2.50125 0.66982,-0.41398 0.94217,-1.80691 0.60522,-3.09543 -0.33696,-1.28851 0.5165,-4.55606 1.89658,-7.26123 1.38007,-2.70517 3.426,-8.54099 4.54651,-12.9685 1.12051,-4.42752 3.07384,-9.49498 4.34073,-11.26103 2.91526,-4.06386 2.10622,-8.84136 -2.59663,-15.33345 -1.92974,-2.66392 -4.66796,-7.94214 -6.08494,-11.72935 -1.41699,-3.78722 -5.33784,-11.5612 -8.71301,-17.2755 -5.80846,-9.83392 -11.68994,-22.70916 -20.39096,-44.6382 -2.1141,-5.32812 -4.28409,-9.6875 -4.8222,-9.6875 -0.53812,0 -1.66195,2.39063 -2.49742,5.3125 -0.83546,2.92188 -1.99402,5.94588 -2.57458,6.71999 -0.58055,0.77411 -1.63789,6.11786 -2.34964,11.875 -0.71175,5.75714 -1.91896,14.12376 -2.6827,18.59251 -0.76373,4.46875 -1.47688,14.3125 -1.58478,21.875 -0.10787,7.5625 -0.41161,14.3125 -0.67491,15 -0.2633,0.6875 0.53541,3.15603 1.77491,5.48563 1.40639,2.64327 1.98833,5.5621 1.54795,7.76402 -0.39002,1.95013 -0.10325,3.90075 0.64114,4.3608 0.76981,0.47578 1.0537,2.63861 0.66264,5.04846 -0.46793,2.88347 -0.19574,4.21609 0.86112,4.21609 0.84992,0 2.2881,2.10938 3.19597,4.6875 2.05631,5.83948 6.03726,10.3125 9.17804,10.3125 1.50843,0 2.91303,1.38389 3.80614,3.75 0.77852,2.0625 1.83508,3.75 2.34793,3.75 2.81255,0 9.79627,8.61345 14.36719,17.71991 7.22957,14.40325 8.36822,17.95254 12.1604,37.90509 2.27105,11.94918 4.24196,18.88771 6.21366,21.875 4.79505,7.26489 6.1584,12.89169 4.4521,18.3745 -0.81313,2.61278 -1.90238,10.3755 -2.42056,17.2505 -1.08201,14.35535 -5.62571,41.41884 -8.0619,48.01884 -0.90975,2.46464 -3.61821,9.82491 -6.01882,16.35616 -6.56949,17.87354 -7.14327,19.16584 -9.74116,21.93988 -2.81781,3.0089 -6.14861,13.22813 -6.16793,18.92385 -0.007,2.1938 -0.62047,4.36383 -1.36229,4.82231 -2.05564,1.27045 -0.0466,13.24621 2.72933,16.26952 1.30319,1.41932 2.36943,3.13515 2.36943,3.81298 0,1.7034 12.40945,15.48146 13.94364,15.48146 0.68402,0 5.39516,2.95313 10.46921,6.5625 10.61444,7.55048 14.23461,12.7078 11.93561,17.00353 -0.81346,1.51997 -2.15277,2.67902 -2.97625,2.57567 -5.75493,-0.72227 -9.18337,0.33938 -11.05448,3.42314 l -2.01133,3.31482 -2.07582,-3.1681 z m 2.97739,-287.81482 c 4.37493,-2.26237 7.637,-10.29205 4.8755,-12.00117 -1.26425,-0.78243 -2.40583,0.52109 -4.39061,5.01347 -1.47517,3.33896 -3.72518,6.67701 -5,7.41788 -3.55817,2.06789 0.41674,1.68917 4.51511,-0.43018 z"
       id="path3424"
       inkscape:connector-curvature="0" />
    <path
       style="fill:#56b6fa"
       d="m 316.97625,627.20495 c -2.12613,-3.24486 -5.21164,-4.53556 -13.22625,-5.53266 -5.57481,-0.69356 -10,-2.8866 -10,-4.95583 0,-2.20895 -10.06878,-7.93195 -15.50801,-8.81462 -3.40838,-0.5531 -4.63017,-0.24624 -5.22858,1.3132 -1.2658,3.29861 -5.27727,2.36745 -7.38841,-1.71504 -2.06725,-3.99762 -6.11503,-5.03345 -7.32704,-1.875 -1.32505,3.45304 -2.65696,1.92599 -4.86046,-5.57261 -2.72983,-9.28969 -2.74804,-8.69659 0.61024,-19.87748 1.85397,-6.17258 3.52139,-9.50392 4.94301,-9.87568 4.94734,-1.29375 14.75925,-48.34664 14.75925,-70.77779 0,-8.22409 1.06303,-14.53828 4.89506,-29.07596 7.22217,-27.39887 7.23288,-27.89573 0.77224,-35.78497 -6.70427,-8.18675 -15.14485,-15.68031 -20.06767,-17.81613 -2.07647,-0.9009 -4.87889,-2.85737 -6.22763,-4.34769 -1.34874,-1.49034 -5.27482,-4.69906 -8.72462,-7.13049 -3.44982,-2.43142 -10.79788,-9.15775 -16.32905,-14.94739 l -10.05667,-10.5266 -14.31833,15.32684 c -7.87508,8.42976 -17.5218,18.71964 -21.43715,22.8664 -5.87569,6.22294 -8.09427,9.94067 -12.70467,21.28955 -3.07221,7.5625 -6.19916,15.66867 -6.9488,18.01372 -0.74962,2.34507 -2.71553,6.03705 -4.36867,8.20444 -1.65315,2.16738 -3.82676,5.90573 -4.83026,8.30743 -1.45079,3.47222 -3.70224,5.35343 -10.99103,9.18358 -18.01104,9.46454 -29.16578,18.93286 -58.217406,49.41583 -23.767113,24.9381 -31.564798,35.27977 -29.890674,39.64246 0.398766,1.03918 -0.394709,3.70118 -1.763276,5.91557 -1.368568,2.21438 -3.359995,8.17003 -4.425395,13.23476 -1.065399,5.06473 -2.696701,11.48641 -3.625118,14.27041 -0.928415,2.78399 -2.07402,8.78236 -2.545787,13.32972 l -0.85776,8.26794 -7.602031,0.79456 C 20.349642,629.32837 18.23564,629.02964 14.657421,625.29479 10.616953,621.07745 7.5,612.6527 7.5,605.94914 c 0,-2.74259 1.4594735,-10.34378 3.243274,-16.89151 2.763114,-10.14248 3.007431,-12.34567 1.650258,-14.88157 -1.223855,-2.2868 -1.251264,-3.31832 -0.118275,-4.45132 0.811109,-0.8111 1.497929,-3.19037 1.526267,-5.28724 0.08699,-6.43634 5.009733,-14.73806 10.564828,-17.81654 2.745244,-1.52133 6.124576,-2.48165 7.509627,-2.13402 3.587888,0.9005 8.774194,-4.99651 18.787369,-21.36194 4.627113,-7.5625 10.885965,-17.31431 13.908561,-21.6707 3.022597,-4.35637 6.855525,-10.60431 8.517619,-13.8843 4.771556,-9.41621 8.594915,-13.09767 22.256883,-21.43084 20.987239,-12.80123 23.382689,-16.1209 23.396619,-32.42352 0.005,-5.34395 -0.6592,-9.11046 -1.92366,-10.91574 -1.33852,-1.911 -1.57441,-3.43393 -0.76912,-4.96563 0.63883,-1.2151 2.3688,-6.70927 3.84438,-12.20927 1.47557,-5.5 4.12298,-13.6497 5.88313,-18.11045 3.60973,-9.14814 7.9445,-24.56813 8.8633,-31.52918 0.33681,-2.55178 1.39911,-5.29253 2.36066,-6.09055 2.17087,-1.80165 2.28438,-5.75402 0.18578,-6.46828 -1.19025,-0.4051 -1.01099,-1.99337 0.75246,-6.66667 7.5065,-19.8929 13.58521,-40.83832 12.59833,-43.4101 -0.44182,-1.15136 0.31433,-3.96338 1.69497,-6.30341 1.37096,-2.3236 2.87543,-6.49031 3.34325,-9.25937 0.832,-4.92454 0.75279,-5.06694 -3.6213,-6.51052 -5.19992,-1.71613 -16.20611,-11.38238 -21.25395,-18.66643 -3.3438,-4.8251 -3.47894,-5.57917 -2.99262,-16.69845 0.42068,-9.61872 1.09941,-12.7737 3.90033,-18.13037 1.86507,-3.56686 3.39103,-7.58736 3.39103,-8.93445 0,-1.34707 0.50597,-2.76195 1.1244,-3.14415 0.61842,-0.3822 1.82187,-3.64977 2.67435,-7.26127 2.70055,-11.44084 21.95602,-46.57643 31.72951,-57.897 3.24545,-3.7592 7.9699,-7.9513 10.49878,-9.31578 2.52888,-1.36447 8.81671,-5.59107 13.97296,-9.39243 8.84997,-6.5245 15.97776,-10.58614 18.57766,-10.58614 0.63688,0 2.90494,-1.63193 5.04014,-3.62651 4.41466,-4.12391 5.46486,-11.61356 1.9076,-13.604305 -1.81059,-1.013254 -6.7754,-13.60604 -6.7754,-17.185161 0,-0.840351 0.81326,-2.202859 1.80725,-3.027795 1.34334,-1.114876 1.50377,-2.298075 0.625,-4.60943 C 215.53201,67.486547 215,63.98138 215,61.407538 c 0,-2.573843 -0.75369,-5.710444 -1.67486,-6.970227 -2.23685,-3.059067 -0.72845,-11.173543 2.76911,-14.896527 1.46066,-1.554802 2.66147,-3.353158 2.66846,-3.996348 0.007,-0.64319 2.39762,-2.246748 5.3125,-3.563464 13.42218,-6.063086 21.43363,-7.487418 30.92479,-5.49803 3.09375,0.648464 6.82388,1.283208 8.28916,1.410542 1.46529,0.127333 5.63662,2.855355 9.26962,6.062267 6.43746,5.682469 6.60443,6.000359 6.56565,12.5 -0.0383,6.40593 -0.48609,10.607165 -2.23304,20.947265 -0.62316,3.688435 -0.36266,4.936468 1.15165,5.517564 1.07632,0.413027 1.95696,1.928545 1.95696,3.367818 0,4.403493 -3.97716,15.475736 -6.27223,17.461602 -2.10578,1.822097 -7.47777,17.08 -7.47777,21.23894 0,1.95602 9.12745,7.51106 12.34137,7.51106 0.7934,0 2.41929,0.53177 3.61309,1.18171 1.1938,0.64994 4.22839,1.50952 6.74354,1.91017 2.95313,0.47041 6.29566,2.40022 9.43614,5.44796 4.16953,4.0464 5.26047,6.31443 7.64909,15.90233 2.34672,9.41975 2.73123,13.96872 2.43886,28.85314 -0.30239,15.39495 -0.0648,17.98364 1.84511,20.10361 1.20571,1.33833 3.11355,5.19919 4.23965,8.57969 1.1261,3.38051 2.59663,6.84652 3.26784,7.70223 0.6712,0.85571 0.93491,2.64745 0.58601,3.98163 -0.3489,1.33419 0.051,3.44657 0.8887,4.69417 0.83767,1.2476 2.26099,6.48711 3.16291,11.64336 0.90191,5.15625 2.42774,10.65651 3.39073,12.22281 0.96297,1.56629 1.39781,3.41905 0.9663,4.11725 -0.43152,0.6982 -0.2443,1.94794 0.41601,2.77719 0.66031,0.82926 1.5184,3.19525 1.90686,5.25775 1.69375,8.99282 2.58486,11.43131 5.25316,14.375 1.55795,1.71875 3.10958,5.09375 3.44808,7.5 0.33849,2.40625 2.12963,8.3125 3.98029,13.125 5.00102,13.00475 5.12417,14.09597 1.96979,17.45367 -2.17652,2.31679 -2.95742,5.10469 -3.63352,12.97202 -0.54403,6.33068 -1.59452,10.8594 -2.85256,12.29766 -1.09526,1.25215 -2.70631,4.52665 -3.58011,7.27665 -1.6582,5.21861 -7.13201,13.99489 -10.44209,16.74201 -3.17499,2.635 -4.76832,0.45956 -2.65566,-3.62587 1.02872,-1.98934 1.87041,-3.8122 1.87041,-4.0508 0,-0.2386 -3.65625,-0.20102 -8.125,0.0835 -5.58163,0.35541 -8.125,0.0682 -8.125,-0.91749 0,-0.78916 0.85371,-1.76245 1.89714,-2.16285 1.04342,-0.4004 1.74655,-1.60895 1.5625,-2.68568 -0.22887,-1.33891 1.64082,-2.66828 5.91536,-4.20591 7.25403,-2.6094 10.90554,-6.43114 10.37475,-10.8584 -0.62593,-5.22076 -2.8445,-4.32009 -5.63642,2.28823 -1.66754,3.94693 -3.73038,6.68386 -5.56854,7.38821 -4.71173,1.80545 -5.60334,-0.48113 -2.59894,-6.66507 1.48204,-3.05048 3.60914,-9.07558 4.72688,-13.3891 1.11775,-4.31353 3.05776,-9.28294 4.31113,-11.04316 2.89263,-4.06231 2.05479,-8.95561 -2.64401,-15.44211 -1.92974,-2.66392 -4.69527,-8.01871 -6.14565,-11.89952 -1.45037,-3.88081 -5.40357,-11.85229 -8.78489,-17.71439 -5.656,-9.80565 -10.15375,-19.50633 -17.37152,-37.46664 -1.51959,-3.78125 -3.27474,-7.85174 -3.90034,-9.04554 -0.6256,-1.19376 -1.13745,-2.98868 -1.13745,-3.98868 0,-1.9149 -2.24505,-3.88737 -3.26438,-2.86804 -2.29388,2.2939 -7.00097,19.6865 -8.01306,29.60821 -1.81247,17.76784 -3.47956,29.88964 -4.29131,31.20306 -0.39711,0.64255 -0.19659,1.49303 0.44562,1.88994 1.42357,0.8798 1.4461,13.56046 0.0283,15.85469 -0.61952,1.00241 -0.0269,3.25174 1.51333,5.74387 1.77437,2.871 2.29286,5.18327 1.73343,7.73039 -0.43901,1.99878 -0.23981,3.97924 0.44268,4.40104 0.68249,0.4218 0.92306,2.72535 0.53463,5.119 -0.53858,3.31889 -0.26925,4.3521 1.13445,4.3521 1.04708,0 2.45193,2.04015 3.25842,4.73196 1.73044,5.77571 5.70811,10.26804 9.0917,10.26804 1.61799,0 2.94898,1.22723 3.72818,3.4375 0.6665,1.89062 3.09412,4.65955 5.39471,6.15316 4.78911,3.10924 13.92059,18.24475 17.96934,29.78434 2.26495,6.45545 5.774,23.27998 7.23555,34.69164 0.24243,1.8929 2.3693,6.9554 4.72637,11.25 5.33579,9.72182 6.14428,13.13358 4.39333,18.53932 -0.76053,2.34798 -1.81049,9.89404 -2.33324,16.76904 -1.15179,15.14776 -4.41473,34.83025 -7.46004,45 -4.68316,15.63935 -13.75199,38.37019 -16.71174,41.88765 -3.70408,4.40206 -8.65498,23.99924 -7.91995,31.34961 0.27923,2.79229 1.66903,6.20875 3.1799,7.81702 1.47613,1.57126 2.68388,3.4784 2.68388,4.23805 0,1.83378 12.38336,15.33267 14.0656,15.33267 2.75981,0 20.30561,13.98945 22.35977,17.82767 1.65287,3.08843 -0.8151,8.40081 -3.7986,8.17663 -6.27841,-0.47175 -8.88488,0.41356 -10.54481,3.58165 l -1.74789,3.33596 -2.10782,-3.21696 z"
       id="path3422"
       inkscape:connector-curvature="0" />
    <path
       style="fill:#2ea7fc"
       d="m 317.66485,627.80803 c -1.94285,-3.63024 -4.74039,-5.01274 -12.15443,-6.00654 -7.29988,-0.9785 -9.99726,-2.25699 -11.77666,-5.58183 -1.61358,-3.01502 -12.51574,-8.71966 -16.66415,-8.71966 -1.65742,0 -3.71375,0.84375 -4.56961,1.875 -2.3945,2.88519 -4.74489,2.24418 -6.875,-1.875 -2.0892,-4.04006 -6.1188,-5.0236 -7.35744,-1.79578 -1.25331,3.26608 -2.76192,1.04301 -5.06431,-7.46273 -2.14799,-7.93528 -2.13896,-8.26689 0.42617,-15.67909 1.44132,-4.1648 2.62058,-8.42779 2.62058,-9.47331 0,-1.04554 1.3495,-2.41405 2.9989,-3.04114 2.64615,-1.00608 3.45179,-3.09761 6.84924,-17.78156 5.30522,-22.92949 7.65186,-38.9663 7.65186,-52.29251 0,-8.95252 0.78948,-13.95923 3.79637,-24.07596 2.08801,-7.02511 4.61933,-17.48766 5.62517,-23.25011 1.75966,-10.08115 1.73167,-10.63434 -0.7406,-14.63455 -3.20571,-5.18696 -19.53524,-20.42352 -23.50811,-21.93467 -3.82597,-1.45529 -12.4443,-8.75008 -28.27082,-23.92919 l -12.74702,-12.22561 -21.72346,23.16661 c -15.84242,16.89486 -22.33883,24.73319 -23.99648,28.95321 -1.25014,3.18263 -3.43897,8.34608 -4.86406,11.47434 -1.42509,3.12826 -3.42799,8.50596 -4.45089,11.95045 -1.0229,3.44448 -3.20982,8.03265 -4.85984,10.19591 -1.65,2.16328 -3.59232,5.63234 -4.31626,7.70903 -0.94354,2.70663 -3.44104,4.97581 -8.8201,8.01372 -22.61216,12.77064 -32.42262,21.23659 -69.016344,59.55782 -15.439131,16.16797 -23.087402,27.1987 -21.580775,31.12491 0.383427,0.9992 -0.409683,3.33287 -1.762466,5.18596 -1.352784,1.85309 -3.327651,7.588 -4.388595,12.74425 -1.060945,5.15625 -2.717866,11.90625 -3.682049,15 -0.964182,3.09375 -2.115182,9.35851 -2.557777,13.92169 l -0.804719,8.29669 -10.699464,0.89125 c -9.471651,0.78898 -11.0757,0.61325 -13.978087,-1.53147 -8.0162091,-5.92354 -10.7740671,-19.85793 -6.6658951,-33.68022 3.7616191,-12.65628 4.3140461,-16.24843 2.9039921,-18.88313 -0.741908,-1.38627 -0.811494,-2.85371 -0.16648,-3.51081 0.609527,-0.62095 1.346785,-3.379 1.638352,-6.129 0.86252,-8.13514 4.493482,-14.08137 10.725428,-17.56449 4.294463,-2.40021 5.824964,-2.7587 6.577735,-1.5407 1.600579,2.5898 9.747272,-6.41218 18.030802,-19.92378 4.085093,-6.66337 11.364942,-18.13994 16.177442,-25.50353 4.8125,-7.36357 10.197972,-15.84141 11.967716,-18.83965 3.058707,-5.18194 8.19105,-8.92724 33.449524,-24.4096 4.81207,-2.94959 7.65506,-10.98905 7.63601,-21.59325 -0.009,-5.18871 -0.72239,-10.64579 -1.59689,-12.22087 -1.70397,-3.06909 -0.14968,-9.30708 8.1674,-32.77913 3.67765,-10.37889 7.70689,-24.5615 9.70561,-34.16304 0.54819,-2.63342 1.62647,-5.4178 2.39617,-6.1875 1.73717,-1.73717 1.84262,-5.89946 0.14946,-5.89946 -2.10723,0 -1.41259,-3.44633 2.38102,-11.81294 1.99707,-4.40442 4.01424,-9.87645 4.48263,-12.16006 0.46839,-2.2836 2.20253,-8.51858 3.85365,-13.85551 1.65112,-5.33693 2.8908,-11.04765 2.75484,-12.6905 -0.13597,-1.64285 0.64563,-4.87002 1.7369,-7.17149 1.09126,-2.30148 2.57205,-6.02654 3.29062,-8.27793 l 1.30653,-4.09342 -7.25079,-3.66019 c -4.68848,-2.36672 -9.70836,-6.41911 -14.20519,-11.46735 -6.44551,-7.23586 -7.01601,-8.3825 -7.79638,-15.66952 -1.08764,-10.15614 0.0835,-17.61644 3.88896,-24.77357 1.68147,-3.16238 3.05721,-6.54471 3.05721,-7.51626 0,-0.97154 0.81827,-3.61365 1.81837,-5.87135 1.00012,-2.2577 2.66734,-7.19866 3.70494,-10.97991 2.40053,-8.748 22.62494,-44.43798 30.21818,-53.32595 3.17582,-3.71734 7.82381,-7.87144 10.32886,-9.23134 4.61511,-2.50535 12.85414,-8.04754 22.17697,-14.91788 2.81729,-2.07616 5.96727,-3.77483 6.99995,-3.77483 1.0327,0 4.21203,-1.69103 7.06518,-3.75784 4.57135,-3.31147 5.18755,-4.34346 5.18755,-8.68789 0,-3.19309 -0.69569,-5.319372 -1.9746,-6.035085 -1.8347,-1.02675 -6.7754,-13.624684 -6.7754,-17.276105 0,-0.89037 0.78081,-2.06868 1.73515,-2.618468 1.80915,-1.04224 1.01609,-8.666033 -2.00966,-19.319343 -1.53297,-5.39734 -0.32257,-13.40461 2.1709,-14.361442 0.96713,-0.371128 2.05438,-1.607231 2.41611,-2.746893 0.96239,-3.032238 10.39876,-8.325137 18.24211,-10.232084 7.99959,-1.94493 20.78788,-1.859165 23.21564,0.155697 0.93385,0.775028 2.52927,1.090115 3.5454,0.700195 1.01611,-0.389921 3.28486,0.531524 5.04166,2.047655 11.49295,9.918487 11.01085,9.238929 11.01936,15.53264 0.005,3.285679 -0.66946,10.435673 -1.49755,15.888874 -1.31957,8.68969 -1.26611,10.04895 0.43263,10.999613 C 279.12779,73.38611 280,75.054147 280,76.496274 280,80.600168 274.82866,93.75 273.21475,93.75 c -1.51933,0 -5.15198,10.41539 -6.4383,18.45961 -0.7146,4.46881 -0.50434,4.84246 4.21842,7.49681 2.73379,1.53647 6.01893,2.81147 7.30032,2.83333 1.2814,0.0219 3.4217,0.86562 4.75622,1.875 1.33453,1.00939 4.14703,1.83794 6.25,1.84122 6.3856,0.01 12.4723,6.76227 15.9122,17.6522 2.52688,7.99954 2.91139,11.77573 2.91139,28.59183 0,18.81985 0.10388,19.5899 3.62382,26.875 6.76739,14.006 7.32172,15.48671 6.55027,17.49707 -0.42399,1.1049 -0.006,3.24507 0.92727,4.75593 0.93399,1.51085 2.37894,6.40325 3.21099,10.872 0.83206,4.46875 2.13536,9.53125 2.89624,11.25 0.76087,1.71875 1.54891,4.25 1.7512,5.625 1.28376,8.72639 2.07298,11.97948 3.05332,12.58536 0.61154,0.37795 1.11189,1.96219 1.11189,3.52051 0,1.55834 1.40625,4.15444 3.125,5.76913 2.21891,2.08456 3.125,4.24985 3.125,7.46789 0,2.49266 0.48072,5.06648 1.06829,5.71961 0.58756,0.65312 2.65386,5.82866 4.59177,11.5012 l 3.52348,10.3137 -2.8988,3.08563 c -2.30925,2.45808 -3.07588,5.09959 -3.76948,12.98831 -0.63315,7.20131 -1.58289,10.80813 -3.48154,13.22187 -1.43597,1.82555 -2.99497,5.068 -3.46443,7.20544 -0.9727,4.42866 -8.4509,15.39565 -11.22353,16.4596 -2.4563,0.94257 -2.38797,-2.22369 0.13094,-6.06803 l 1.97669,-3.01682 -8.85169,0.7421 c -6.3733,0.53431 -8.8517,0.33036 -8.8517,-0.72844 0,-0.80878 0.84375,-1.7943 1.875,-2.19002 1.03125,-0.39574 1.875,-1.66153 1.875,-2.81288 0,-1.39476 1.83644,-2.63561 5.50284,-3.71817 7.01641,-2.0717 11.07315,-6.2639 10.53025,-10.8819 -0.65458,-5.56795 -2.84783,-4.81928 -5.94265,2.02852 -2.77663,6.14375 -7.02015,9.53993 -9.27877,7.42597 -0.58482,-0.54738 0.36359,-4.28548 2.10759,-8.3069 1.74401,-4.02143 4.04058,-10.45742 5.10349,-14.3022 1.0629,-3.84478 3.07751,-8.44609 4.4769,-10.22513 1.55705,-1.97946 2.05077,-3.53966 1.27235,-4.02075 -0.6996,-0.43237 -1.272,-1.63597 -1.272,-2.67465 0,-1.03869 -1.59419,-4.23986 -3.54264,-7.11372 -1.94846,-2.87388 -4.89309,-8.60023 -6.54362,-12.72523 -1.65055,-4.125 -5.46593,-11.61715 -8.47863,-16.64921 -3.0127,-5.03206 -8.81326,-17.12581 -12.89016,-26.875 -4.07689,-9.74919 -7.89756,-18.85079 -8.49039,-20.22579 -0.59282,-1.375 -1.41042,-3.53115 -1.81687,-4.79145 -1.03492,-3.20899 -3.49905,-1.99429 -4.80689,2.36958 -0.60525,2.01952 -1.90336,5.64062 -2.88469,8.04687 -0.98132,2.40625 -2.35931,10 -3.0622,16.875 -0.70289,6.875 -2.05619,17 -3.00734,22.5 -0.9768,5.64826 -1.26325,10.57073 -0.65823,11.31149 1.24582,1.52539 0.81945,14.36577 -0.55065,16.58264 -0.52298,0.84618 0.23777,2.9898 1.73787,4.89685 1.99101,2.53117 2.47768,4.40647 1.91788,7.39046 -0.41259,2.19924 -0.20743,4.33404 0.4559,4.74399 0.66332,0.40996 0.88823,2.70382 0.4998,5.09747 -0.52025,3.20595 -0.25168,4.35576 1.01981,4.366 0.94932,0.008 2.85105,2.96076 4.22605,6.5625 2.09289,5.48219 3.20341,6.77595 6.81954,7.94472 2.86859,0.92718 4.68277,2.48583 5.4009,4.64019 0.59473,1.78423 2.93346,4.38871 5.19715,5.78775 4.98129,3.07862 14.15629,18.45215 17.93452,30.05094 2.6949,8.27305 6.52562,27.13821 6.52387,32.12811 -5.4e-4,1.51422 2.29452,7.11171 5.10013,12.43888 4.71412,8.95093 5.04379,10.21197 4.34555,16.62188 -0.41556,3.81487 -1.22941,12.27988 -1.80856,18.81113 -0.96364,10.86726 -5.31634,38.02993 -7.09474,44.27421 -0.4074,1.43044 -2.73651,7.94454 -5.17581,14.47579 -2.43931,6.53125 -5.57595,14.96875 -6.97032,18.75 -1.39437,3.78125 -3.79437,8.28125 -5.33333,10 -3.22196,3.59836 -8.2675,22.6222 -7.88794,29.74092 0.26503,4.97062 2.94688,11.50908 4.72063,11.50908 0.59531,0 1.41075,1.30827 1.81207,2.90729 0.899,3.5819 10.86958,12.74364 23.16863,21.28913 11.7202,8.14332 14.54596,11.70833 12.62399,15.92661 -1.20925,2.654 -2.12958,3.03096 -6.74102,2.76106 -4.90501,-0.28708 -5.49482,0.0131 -7.23191,3.68106 -1.86665,3.94146 -1.91057,3.95769 -3.3635,1.24288 z"
       id="path3420"
       inkscape:connector-curvature="0" />
    <path
       style="fill:#0095fd"
       d="m 19.375,627.70366 c -4.03073,-0.74449 -6.654537,-3.84451 -9.348804,-11.04557 -3.2934326,-8.80249 -3.187333,-12.79412 0.677811,-25.5003 2.227846,-7.32378 2.999075,-12.13478 2.531368,-15.7909 -0.389476,-3.04459 -0.123887,-5.59726 0.630889,-6.06374 0.71694,-0.4431 1.180059,-2.57695 1.029151,-4.74189 -0.500885,-7.1858 3.343091,-13.88555 10.066295,-17.54477 4.105178,-2.23433 6.22787,-2.82275 6.562402,-1.81915 0.979875,2.93962 8.245858,-4.25746 14.917372,-14.77594 3.675934,-5.79556 10.963173,-17.12066 16.193865,-25.16689 5.230692,-8.04623 10.657462,-16.88481 12.059489,-19.64128 3.679527,-7.2342 9.162173,-12.04697 24.565211,-21.56378 17.827481,-11.01476 18.748891,-12.31817 19.299391,-27.30061 0.30024,-8.17141 -0.0468,-12.40366 -1.12342,-13.70093 -1.78141,-2.14647 -0.24868,-8.56751 7.1427,-29.92291 2.37953,-6.875 5.19508,-16.15625 6.25679,-20.625 1.0617,-4.46875 2.43304,-9.10174 3.04743,-10.29554 0.61439,-1.1938 1.11706,-3.87117 1.11706,-5.94973 0,-2.23234 1.02327,-4.65535 2.5,-5.91977 2.9942,-2.56371 3.11245,-3.83636 0.61306,-6.59816 -1.69431,-1.87217 -1.52159,-2.97104 1.69185,-10.76371 1.96834,-4.77326 5.11698,-14.28554 6.99698,-21.13838 1.87998,-6.85283 3.71332,-13.30346 4.07407,-14.33471 0.36075,-1.03125 0.80338,-3.5625 0.98361,-5.625 0.18024,-2.0625 1.52307,-7.07169 2.98407,-11.13154 1.461,-4.05983 2.65636,-7.49903 2.65636,-7.64267 0,-0.14363 -2.60835,-1.25729 -5.79635,-2.47479 -3.9599,-1.5123 -8.48226,-5.01367 -14.2739,-11.05139 -8.38016,-8.73621 -8.48735,-8.93523 -9.32988,-17.32475 -0.99556,-9.91337 0.81015,-19.15618 5.23735,-26.80816 1.6494,-2.85082 2.85879,-5.66332 2.68754,-6.25 -0.17126,-0.58669 0.58193,-3.59795 1.67374,-6.6917 1.09181,-3.09375 2.62227,-7.64327 3.40101,-10.11005 1.34555,-4.26224 4.66001,-10.6151 18.203,-34.88995 8.29073,-14.86054 17.49455,-23.89205 35.11461,-34.45721 2.36857,-1.42021 5.57804,-3.74712 7.13218,-5.17089 1.55414,-1.42378 6.06135,-4.10011 10.01602,-5.94741 3.95469,-1.8473 8.03282,-4.2012 9.0625,-5.23089 2.43028,-2.43027 2.58222,-12.9436 0.18707,-12.9436 -3.4303,0 -7.63994,-19.183316 -4.44347,-20.24881 0.98737,-0.32912 0.964,-1.970251 -0.0835,-5.860184 -0.8002,-2.971674 -1.12332,-6.267094 -0.71807,-7.323155 0.40525,-1.056062 -0.12759,-3.239351 -1.18407,-4.851752 -4.24255,-6.47495 1.3465,-18.068968 11.23917,-23.314733 8.7612,-4.645782 15.19666,-6.126866 23.9028,-5.501095 13.72621,0.986599 16.58225,2.003525 23.2742,8.287054 7.14068,6.704866 7.41316,8.311747 4.66548,27.513364 -1.1094,7.752788 -1.1402,10.700068 -0.11538,11.041666 3.61605,1.205347 0.0931,16.916907 -4.46251,19.901861 -1.58925,1.04132 -2.89803,3.09424 -2.90838,4.562046 -0.01,1.467805 -0.82941,4.918738 -1.82012,7.668738 -3.06185,8.49892 -2.5265,11.06874 2.94664,14.14482 2.67174,1.5016 5.97787,2.73018 7.34696,2.73018 1.36909,0 3.12896,0.7708 3.91082,1.7129 0.78188,0.94209 3.75301,2.02561 6.60254,2.40781 7.7588,1.04067 12.86504,6.80364 16.30186,18.39848 2.38233,8.03727 2.73579,11.9032 2.50801,27.43102 -0.24496,16.6994 -0.0455,18.50717 2.62097,23.75 1.58735,3.12114 3.64327,8.06541 4.5687,10.98729 0.92543,2.92187 2.21606,5.3125 2.86805,5.3125 0.65198,0 0.81898,1.46005 0.3711,3.24456 -0.44789,1.78451 -0.29829,3.89389 0.33245,4.6875 0.63072,0.79362 1.47565,3.13044 1.8776,5.19294 1.84163,9.44979 4.0778,18.0362 4.91526,18.87366 0.5049,0.5049 0.918,2.47856 0.918,4.3859 0,1.90734 0.50035,3.77713 1.11189,4.15508 0.61153,0.37796 1.4286,2.52052 1.81568,4.76127 1.75938,10.18464 2.52809,12.21013 5.33105,14.0467 2.12994,1.39559 2.99268,3.12163 2.99592,5.9937 0.002,2.21853 1.73402,8.53369 3.84786,14.03369 5.65781,14.72111 5.61777,14.44601 2.44986,16.83557 -2.32142,1.75107 -3.00417,3.89568 -3.82746,12.02283 -0.70756,6.9848 -1.94866,11.5446 -4.22336,15.5166 -1.77173,3.09375 -3.2281,6.46388 -3.23638,7.48917 -0.0225,2.79037 -8.80864,15.01083 -10.79229,15.01083 -2.22886,0 -2.17157,-0.72952 0.39902,-5.08117 2.57468,-4.3586 1.82358,-5.40648 -2.6548,-3.7038 -7.11835,2.7064 -16.65292,0.98227 -11.56023,-2.09042 0.91123,-0.54978 1.98788,-1.904 2.39256,-3.00937 0.4047,-1.10538 2.39312,-2.34123 4.41872,-2.74635 2.0256,-0.40512 5.47897,-2.24787 7.67416,-4.09499 3.14236,-2.64414 3.91059,-4.16641 3.61202,-7.1574 -0.54863,-5.4961 -3.09103,-5.52509 -5.37397,-0.0612 -2.51301,6.0145 -5.3921,9.19478 -8.32399,9.19478 -2.8714,0 -2.86505,-0.25428 0.15393,-6.17198 1.35311,-2.6523 3.56885,-8.82306 4.92386,-13.7128 1.35501,-4.88974 3.73481,-10.67559 5.28844,-12.85745 1.91268,-2.68614 2.34087,-4.12832 1.32613,-4.46656 -0.82423,-0.27475 -1.50886,-1.43705 -1.52137,-2.58288 -0.0125,-1.14583 -1.68026,-4.52921 -3.70613,-7.5186 -2.02585,-2.9894 -4.84418,-8.53782 -6.26296,-12.32983 -1.41876,-3.79202 -5.45174,-11.75239 -8.96215,-17.68974 -3.5104,-5.93734 -7.66956,-14.17016 -9.24256,-18.29516 -1.57301,-4.125 -4.59104,-11.28453 -6.70673,-15.91005 -2.1157,-4.62557 -3.84672,-9.26619 -3.84672,-10.31253 0,-1.04635 -0.52337,-1.90245 -1.16306,-1.90245 -0.63969,0 -1.34282,-1.26563 -1.5625,-2.8125 -0.57458,-4.04569 -3.74097,-3.46304 -5.09482,0.9375 -0.63453,2.0625 -1.90328,5.4375 -2.81943,7.5 -0.91615,2.0625 -2.2828,9.375 -3.037,16.25 -0.7542,6.875 -1.87403,14.1875 -2.4885,16.25 -1.59114,5.34065 -2.53478,19.2583 -1.35518,19.98734 1.11563,0.68948 0.75625,10.10026 -0.54189,14.19035 -0.51873,1.63438 -0.089,3.7544 1.1073,5.46232 1.07529,1.53519 1.95508,5.16415 1.95508,8.06435 0,2.9002 0.48706,5.57412 1.08236,5.94204 0.5953,0.36791 0.79689,2.16229 0.44798,3.98751 -0.41944,2.19413 0.0136,3.68123 1.27812,4.38886 1.05188,0.58867 2.29394,2.59005 2.76014,4.44752 1.24673,4.96738 5.5134,10.40471 8.16456,10.40471 1.27213,0 3.45718,1.82812 4.85568,4.0625 1.39851,2.23437 4.20944,5.1602 6.24652,6.50182 4.21988,2.77923 12.18368,16.19078 16.73668,28.18568 1.69624,4.46875 4.07827,14.59375 5.2934,22.5 2.0854,13.56859 3.6586,18.35741 9.44482,28.75 2.8298,5.08256 3.11239,11.43169 0.81362,18.28034 -0.89437,2.66456 -1.46718,7.37591 -1.27292,10.46966 0.3133,4.98958 -0.52492,10.70775 -5.93711,40.5017 -0.73701,4.05718 -2.89336,11.36967 -4.79191,16.25 -1.89855,4.88031 -4.99736,13.19877 -6.88626,18.48546 -1.8889,5.28669 -4.74225,11.0234 -6.34079,12.74825 -3.31974,3.58207 -8.14489,22.02742 -8.14489,31.13591 0,4.24229 0.79381,6.63025 3.125,9.40072 1.71875,2.04262 3.125,4.26346 3.125,4.93521 0,1.42664 11.95821,14.01374 13.399,14.10366 2.74336,0.17124 21.11161,14.8709 22.10233,17.68796 1.88261,5.35317 0.28231,7.25113 -6.11389,7.25113 -4.85741,0 -5.8996,0.45775 -7.11488,3.125 -1.71372,3.7612 -3.08242,3.98094 -4.13521,0.6639 -0.84412,-2.65957 -7.37647,-5.02026 -13.92412,-5.03192 -2.8807,-0.005 -5.30049,-1.35469 -9.18043,-5.12004 -8.18846,-7.94663 -18.55884,-11.13053 -21.80297,-6.6939 -1.62313,2.21976 -5.72983,1.23005 -5.72983,-1.38089 0,-0.91871 -1.23391,-2.53465 -2.74202,-3.59097 -2.42258,-1.69684 -2.98014,-1.7051 -4.78593,-0.0709 -2.95861,2.67751 -3.27871,2.43174 -4.82366,-3.70381 -1.88992,-7.50557 -1.69015,-15.65613 0.47661,-19.44649 0.98252,-1.71875 1.80635,-4.34371 1.8307,-5.83324 0.0244,-1.48953 1.50061,-3.76908 3.28054,-5.06568 2.69804,-1.96538 3.83693,-4.88847 6.84833,-17.57678 5.13824,-21.64962 7.89407,-40.5666 7.5971,-52.1493 -0.20217,-7.88596 0.54183,-12.83476 3.51935,-23.40926 5.0349,-17.88113 6.46485,-24.229 7.00448,-31.09449 0.41622,-5.29549 0.004,-6.27863 -5.173,-12.3439 -5.39185,-6.31671 -18.01422,-17.52735 -19.73454,-17.52735 -1.81984,0 -18.26771,-13.79821 -29.42823,-24.6875 C 223.60195,385.20312 217.90295,380 217.45529,380 c -0.44768,0 -3.0821,2.67187 -5.85428,5.9375 -2.77219,3.26562 -12.30369,13.65068 -21.18111,23.07789 -16.04596,17.0397 -16.17539,17.22505 -22.03035,31.54983 -3.23925,7.92521 -5.88955,15.19578 -5.88955,16.15686 0,0.96106 -1.89038,4.49552 -4.20085,7.85434 -2.31046,3.35883 -4.60824,7.39053 -5.10615,8.95933 -0.91009,2.86743 -9.86785,10.21425 -12.45392,10.21425 -4.65348,0 -34.17343,23.72581 -45.880343,36.875 -1.224182,1.375 -9.517236,10.09375 -18.42901,19.375 -16.244156,16.91763 -24.498843,28.31244 -23.117664,31.91174 0.406427,1.05912 -0.401861,4.29665 -1.796197,7.19447 -3.138085,6.52185 -7.693115,24.66298 -9.326379,37.14379 -0.674757,5.15625 -1.584053,9.73991 -2.02066,10.18592 -0.931478,0.95154 -17.151752,1.94044 -20.793827,1.26774 z"
       id="path3418"
       inkscape:connector-curvature="0" />
  </g>
</svg>
